PathFileType	4	(X/Y/Z)	Static_1_OpenSim.trc																																																																																																																						
DataRate	CameraRate	NumFrames	NumMarkers	Units	OrigDataRate	OrigDataStartFrame	OrigNumFrames																																																																																																																		
100	100	4	40	mm	100	233	619																																																																																																																		
Frame#	Time	R.ASIS			R.PSIS			S2			L.PSIS			L.ASIS			R.TH1			R.TH2			R.TH3			R.MKnee			R.Knee			R.SH1			R.SH2			R.SH3			R.SH4			R.Ankle			R.MAnkle			R.Heel			R.MT5			R.MT1			L.TH1			L.TH2			L.TH3			L.TH4			L.MKnee			L.Knee			L.SH1			L.SH2			L.SH3			L.Ankle			L.MAnkle			L.Heel			L.MT5			L.MT1			R.Acr			L.Acr			C7			T10			Clav			Sternum			R.Back		
		X1	Y1	Z1	X2	Y2	Z2	X3	Y3	Z3	X4	Y4	Z4	X5	Y5	Z5	X6	Y6	Z6	X7	Y7	Z7	X8	Y8	Z8	X9	Y9	Z9	X10	Y10	Z10	X11	Y11	Z11	X12	Y12	Z12	X13	Y13	Z13	X14	Y14	Z14	X15	Y15	Z15	X16	Y16	Z16	X17	Y17	Z17	X18	Y18	Z18	X19	Y19	Z19	X20	Y20	Z20	X21	Y21	Z21	X22	Y22	Z22	X23	Y23	Z23	X24	Y24	Z24	X25	Y25	Z25	X26	Y26	Z26	X27	Y27	Z27	X28	Y28	Z28	X29	Y29	Z29	X30	Y30	Z30	X31	Y31	Z31	X32	Y32	Z32	X33	Y33	Z33	X34	Y34	Z34	X35	Y35	Z35	X36	Y36	Z36	X37	Y37	Z37	X38	Y38	Z38	X39	Y39	Z39	X40	Y40	Z40
233	2.32	893.913	1070.6163	-434.0054	686.6565	1079.2257	-535.1108	677.6031	1076.6577	-580.8156	690.9236	1082.0459	-631.5134	890.5727	1068.1645	-725.539	854.3621	738.6079	-398.7187	772.7603	737.704	-395.7578	773.0406	628.2808	-403.9405	811.3827	501.6928	-519.7285	792.6249	512.8314	-406.4644	789.3119	349.7819	-391.3441	792.3571	238.2103	-402.6487	707.1241	350.1375	-399.9955	710.7167	236.6054	-401.257	725.3628	77.9738	-402.2595	789.6809	92.8162	-480.5194	685.8931	37.0559	-474.6172	823.821	37.8706	-336.0743	898.0895	39.5505	-404.3198	872.7481	766.5613	-753.3378	859.6881	658.4716	-751.2783	789.9098	772.7673	-765.8522	780.2314	663.2292	-755.3205	824.2817	501.1988	-643.706	812.2246	518.4594	-751.5039	798.9082	392.3052	-782.4174	717.0332	399.1281	-772.7098	711.0362	289.5192	-774.7474	752.3554	83.8595	-797.26	798.2294	91.4059	-703.4967	696.3264	43.6423	-734.8202	854.9824	33.1243	-833.3427	911.0936	45.1417	-741.456	810.1505	1490.6566	-430.8401	792.9476	1479.3402	-728.4286	756.3018	1505.5485	-580.2943	742.8749	1180.3423	-579.0766	899.762	1420.6567	-583.1161	935.2604	1276.9072	-572.5071	682.4605	1402.7788	-498.4987
234	2.33	893.9285	1070.6202	-434.0058	686.6534	1079.2363	-535.0537	677.5803	1076.6728	-580.7483	690.9028	1082.0513	-631.4597	890.5251	1068.1683	-725.5253	854.3711	738.6061	-398.7157	772.7804	737.6984	-395.7411	773.0566	628.2823	-403.9877	811.3484	501.7009	-519.7189	792.6214	512.8328	-406.4482	789.3063	349.7825	-391.3318	792.3533	238.2169	-402.6426	707.123	350.1367	-399.9695	710.6559	236.6351	-401.1762	725.3613	77.9749	-402.2695	789.67	92.8196	-480.515	685.8942	37.0603	-474.6121	823.8193	37.8718	-336.0703	898.0929	39.5519	-404.3272	872.7017	766.5751	-753.3215	859.6434	658.481	-751.2448	789.8432	772.7709	-765.8048	780.1772	663.2323	-755.2797	824.2544	501.1987	-643.6894	812.1805	518.4645	-751.4982	798.8704	392.3093	-782.4012	717.008	399.1318	-772.6907	711.0349	289.5116	-774.733	752.3504	83.8673	-797.2582	798.2275	91.4082	-703.4908	696.3284	43.6439	-734.8165	854.9793	33.1292	-833.3389	911.0795	45.1456	-741.4504	810.1985	1490.6582	-430.8163	792.9523	1479.3789	-728.404	756.3217	1505.57	-580.2664	742.8342	1180.3523	-579.0448	899.7976	1420.6857	-583.1256	935.3058	1276.9598	-572.5203	682.4804	1402.804	-498.452
235	2.34	893.9442	1070.6233	-434.0045	686.6524	1079.2473	-534.9966	677.5595	1076.6868	-580.685	690.886	1082.0564	-631.4071	890.4811	1068.171	-725.5093	854.3815	738.6034	-398.713	772.7995	737.6945	-395.723	773.0682	628.2842	-404.0153	811.3131	501.7077	-519.71	792.6171	512.8333	-406.4327	789.3002	349.7834	-391.3195	792.3483	238.226	-402.638	707.1185	350.136	-399.9449	710.6019	236.6603	-401.1059	725.3606	77.9755	-402.2716	789.6545	92.8176	-480.5083	685.8952	37.0629	-474.6082	823.8178	37.8717	-336.0656	898.0956	39.5529	-404.3331	872.659	766.5925	-753.3054	859.5986	658.4846	-751.2166	789.7842	772.7737	-765.7589	780.1262	663.2326	-755.2402	824.2301	501.2004	-643.6707	812.1398	518.4703	-751.4916	798.8371	392.3132	-782.3851	716.9858	399.1352	-772.6736	711.0292	289.5067	-774.7162	752.3453	83.8753	-797.2575	798.2259	91.4089	-703.4843	696.3259	43.6487	-734.8094	854.9761	33.1322	-833.3357	911.0593	45.1492	-741.4429	810.2469	1490.6577	-430.7936	792.9552	1479.4161	-728.3787	756.3408	1505.5891	-580.2393	742.7939	1180.3616	-579.012	899.8303	1420.7141	-583.1376	935.3525	1277.0127	-572.5347	682.4985	1402.8285	-498.4104
236	2.35	893.9606	1070.6251	-434.0023	686.6533	1079.2599	-534.9416	677.5416	1076.6999	-580.6275	690.8741	1082.0627	-631.3566	890.4433	1068.1724	-725.4915	854.3928	738.5994	-398.7103	772.8157	737.6924	-395.7027	773.0753	628.2862	-404.025	811.278	501.7125	-519.7013	792.6122	512.8328	-406.4185	789.2937	349.7846	-391.3079	792.3422	238.2365	-402.6338	707.1105	350.1354	-399.9223	710.5581	236.6789	-401.0494	725.3613	77.9751	-402.2638	789.639	92.8121	-480.5005	685.8962	37.0639	-474.6056	823.8174	37.8699	-336.061	898.0977	39.5533	-404.3371	872.62	766.6102	-753.2899	859.5535	658.4822	-751.1959	789.7332	772.7759	-765.7156	780.0785	663.2308	-755.2027	824.2082	501.2031	-643.6503	812.1026	518.4756	-751.4824	798.8082	392.3167	-782.3689	716.966	399.1379	-772.6572	711.019	289.5042	-774.6977	752.3408	83.8817	-797.2567	798.225	91.4076	-703.4778	696.3205	43.6557	-734.8001	854.9741	33.1329	-833.3336	911.0362	45.1522	-741.4351	810.2937	1490.6544	-430.7722	792.9566	1479.4506	-728.3536	756.3586	1505.6064	-580.2131	742.7555	1180.3704	-578.9778	899.8597	1420.7424	-583.1514	935.3998	1277.064	-572.5507	682.5136	1402.8516	-498.3733
